<?xml version="1.0" standalone="no"?>
<!DOCTYPE svg PUBLIC "-//W3C//DTD SVG 20010904//EN"
 "http://www.w3.org/TR/2001/REC-SVG-20010904/DTD/svg10.dtd">
<svg version="1.0" xmlns="http://www.w3.org/2000/svg"
 width="500.000000pt" height="500.000000pt" viewBox="0 0 500.000000 500.000000"
 preserveAspectRatio="xMidYMid meet">

<g transform="translate(0.000000,500.000000) scale(0.100000,-0.100000)"
fill="#000000" stroke="none">
<path d="M0 2500 l0 -2500 2500 0 2500 0 0 2500 0 2500 -2500 0 -2500 0 0
-2500z m1570 795 c0 -13 -52 -15 -410 -15 l-410 0 0 -410 c0 -358 -2 -410 -15
-410 -13 0 -15 54 -15 425 l0 425 425 0 c371 0 425 -2 425 -15z m-420 -513
c53 -26 80 -74 80 -141 0 -109 -50 -151 -192 -159 l-88 -5 0 -73 c0 -72 -1
-74 -25 -74 l-25 0 0 235 0 235 108 0 c82 0 115 -4 142 -18z m473 4 c54 -23
80 -59 85 -119 5 -67 -16 -111 -63 -134 -19 -9 -35 -19 -35 -22 0 -3 23 -44
50 -91 l49 -85 -27 -3 c-14 -2 -28 0 -30 5 -1 4 -24 44 -50 88 l-48 80 -64 0
-65 0 -3 -87 c-3 -80 -5 -88 -22 -88 -19 0 -20 8 -20 235 l0 235 105 0 c67 0
117 -5 138 -14z m538 -1 c92 -33 143 -111 143 -220 0 -151 -105 -246 -256
-232 -126 11 -208 103 -208 231 0 172 155 279 321 221z m505 -21 c140 -86 140
-312 0 -398 -41 -26 -60 -30 -137 -34 l-89 -4 0 237 0 237 89 -4 c77 -4 96 -8
137 -34z m294 -199 l0 -235 -25 0 -25 0 0 235 0 235 25 0 25 0 0 -235z m315
78 l110 -158 3 158 3 157 24 0 25 0 0 -231 c0 -141 -4 -228 -9 -224 -6 3 -70
91 -143 195 l-133 191 -3 -201 -2 -200 -25 0 -25 0 0 235 0 235 33 0 c30 0 39
-10 142 -157z m355 -78 l0 -235 -25 0 -25 0 0 235 0 235 25 0 25 0 0 -235z
m470 210 c0 -24 -2 -25 -72 -25 l-73 0 3 -210 3 -210 -25 0 -26 0 -2 208 -3
207 -67 3 c-65 3 -68 4 -68 27 l0 25 165 0 165 0 0 -25z m180 -665 l0 -430
-422 2 c-368 3 -423 5 -423 18 0 13 53 15 408 18 l407 2 0 410 c0 358 2 410
15 410 13 0 15 -54 15 -430z"/>
<path d="M950 2640 l0 -110 70 0 c39 0 86 6 105 14 78 33 87 154 14 192 -18 9
-58 14 -109 14 l-80 0 0 -110z"/>
<path d="M1420 2654 l0 -96 99 4 c79 2 103 7 119 22 46 40 35 124 -19 151 -18
10 -58 15 -114 15 l-85 0 0 -96z"/>
<path d="M2030 2748 c-169 -30 -202 -274 -47 -354 17 -9 55 -16 88 -16 115 0
189 74 189 187 0 128 -99 206 -230 183z"/>
<path d="M2498 2749 c-16 -9 -18 -29 -18 -194 l0 -185 25 0 c51 0 127 23 156
47 45 38 62 80 62 148 0 95 -52 168 -131 180 -20 3 -46 8 -57 10 -11 2 -28 -1
-37 -6z"/>
</g>
</svg>
